<svg width="247" height="32" viewBox="0 0 247 32" fill="none" xmlns="http://www.w3.org/2000/svg">
<path d="M11.9434 0.194829C7.45162 1.10356 3.29741 4.55675 0.908735 9.41199L0.301588 11.762L0 15.5135C0 20.2908 0.155783 21.2255 0.908735 21.2255C1.60976 21.2255 1.79151 20.3168 1.60976 17.7464C1.27223 12.5536 2.38867 9.10043 5.45241 5.90687C7.08813 4.21922 8.17861 3.5182 11.3722 2.16808C12.6704 1.62284 18.3824 1.59688 19.3431 2.14212C19.7066 2.34983 20.1999 2.50561 20.4335 2.53157C20.6672 2.53157 21.576 2.947 22.4068 3.44031C25.7042 5.36163 28.1448 8.58115 29.0795 12.268C29.8844 15.4096 29.8584 15.7472 28.5862 18.1358C27.9631 19.3302 27.288 20.3428 27.0803 20.3947C26.8726 20.4207 26.3014 19.5898 25.6263 18.2657C25.0291 17.0454 24.406 15.9808 24.2502 15.903C23.731 15.5654 23.1598 16.3184 21.7058 19.3302C21.4202 19.9533 21.0307 20.4466 20.823 20.4466C20.6413 20.4466 20.2258 19.9533 19.9143 19.3302C18.9536 17.5127 17.941 15.6952 17.4217 14.9163C16.9544 14.2413 16.8246 14.1893 15.7081 14.3451C14.7475 14.4749 14.4359 14.423 14.1243 14.0595C13.6829 13.5402 12.3069 11.1516 11.5539 9.59374C11.2683 8.99657 10.9048 8.50326 10.749 8.50326C10.2298 8.50326 9.4768 9.0485 9.4768 9.41199C9.4768 9.6197 9.13927 10.2688 8.72385 10.8919C8.30843 11.5151 7.71126 12.4757 7.3997 13.0469C7.08813 13.6181 6.62078 14.423 6.33518 14.8644C6.07554 15.2798 5.76397 15.8251 5.66012 16.0328C5.29662 16.7857 2.41464 21.615 2.10307 22.0045C1.37608 22.8613 1.45398 23.2507 2.75217 24.9903C4.82928 27.7425 7.6853 29.6898 11.4241 30.936C13.2935 31.5332 17.6814 31.5072 19.7325 30.8581C21.4721 30.3129 23.8088 29.1445 24.7955 28.3656C26.0417 27.353 28.1448 25.2499 28.2227 24.9384C28.2746 24.6787 25.834 24.6008 17.4477 24.5489C10.1259 24.497 6.62078 24.5489 6.62078 24.7307C6.62078 24.8864 6.98427 25.224 7.3997 25.4836C8.12668 25.899 8.95753 25.951 16.1495 25.925C20.5374 25.925 24.1983 25.9769 24.3281 26.0548C25.107 26.5481 22.1212 28.5733 19.4729 29.3263C17.4217 29.9234 13.7608 29.9234 11.7097 29.3522C9.45084 28.7291 7.26988 27.379 5.40048 25.4317C3.63494 23.6402 3.42723 23.017 4.28403 21.9266C4.56964 21.5631 4.80331 21.1996 4.80331 21.1217C4.80331 21.0178 5.08891 20.4726 5.45241 19.9014L6.12747 18.8628L8.95753 19.0446C11.6837 19.2263 11.8135 19.2004 11.8135 18.707C11.8135 17.6685 10.9048 17.2011 8.93156 17.305C7.78915 17.3569 7.14006 17.279 7.14006 17.0973C7.14006 16.9415 7.63337 16.0328 8.2565 15.0721C8.85367 14.1114 9.52873 12.995 9.71048 12.6055C10.2298 11.593 10.7231 11.4891 11.1125 12.3459C11.3722 12.969 13.7089 17.0454 14.4099 18.1099C14.5657 18.3176 14.7994 18.733 14.9292 19.0186C15.085 19.3042 15.4225 19.8754 15.7081 20.3168C15.9937 20.7322 16.3313 21.3294 16.4611 21.615C16.8505 22.4718 17.8112 23.3286 18.2526 23.2507C18.9796 23.1209 18.9017 22.316 18.0708 21.2515C17.6295 20.7063 17.266 20.1351 17.266 20.0312C17.266 19.9014 16.8505 19.2004 16.3313 18.4474C15.3966 17.0973 15.2408 16.1626 15.9678 16.1626C16.3313 16.1626 18.6161 19.5898 19.5767 21.641C20.5893 23.77 21.2384 23.6142 22.7184 20.8361C24.0166 18.4474 23.8867 18.4474 25.3147 21.0957C25.7561 21.9525 26.3014 22.8093 26.5091 23.017C27.0543 23.5883 28.015 23.017 28.6641 21.6929C28.9757 21.0698 29.469 20.213 29.7286 19.7975C31.1047 17.5906 31.2864 17.0454 31.2864 15.3317C31.2864 13.6181 30.7672 11.2035 30.0921 9.6197C29.8844 9.17832 29.7286 8.7629 29.7286 8.685C29.7286 8.60711 29.2872 7.85416 28.716 7.02332C26.4831 3.67399 22.6405 0.973744 19.0055 0.194829C17.7073 -0.0648094 13.2675 -0.0648094 11.9434 0.194829Z" fill="white"/>
<path d="M44.2678 6.81572C43.9822 7.49078 43.7486 8.13988 43.7486 8.2697C43.7486 8.42548 43.2293 9.61982 42.6062 10.918C42.009 12.2422 41.0483 14.3452 40.5291 15.6434C40.0098 16.9157 39.4645 18.2139 39.3347 18.4995C39.2049 18.7851 38.9193 19.4861 38.6856 20.0573C38.4519 20.6285 38.1404 21.2776 38.0106 21.4853C37.5432 22.2642 37.2576 23.0951 37.4134 23.3287C37.4913 23.4585 38.3481 23.5624 39.3607 23.5624C40.7368 23.5624 41.1522 23.4845 41.1522 23.1989C41.1522 22.9912 41.0483 22.7575 40.9185 22.6537C40.4771 22.394 40.2954 20.1871 40.6069 19.1226L40.9185 18.11H44.164C47.02 18.11 47.4095 18.1619 47.5393 18.5514C47.8509 19.512 49.3048 22.9393 49.5385 23.2249C49.7722 23.5624 52.6022 23.7182 52.8878 23.4326C52.9657 23.3547 52.5244 22.2642 51.9272 21.0179C51.3041 19.7717 50.4992 18.0581 50.1097 17.2013C48.9154 14.501 47.9288 12.2681 47.3056 10.7622C47.1239 10.3208 46.7604 9.51596 46.5267 9.02265C46.319 8.52934 45.9815 7.67253 45.8257 7.15325C45.6699 6.63398 45.3843 6.06277 45.1766 5.90699C44.865 5.64735 44.7092 5.80313 44.2678 6.81572ZM44.6833 11.8008C44.7871 12.2162 45.3064 13.4884 45.8516 14.6828C46.4228 15.8771 46.8123 16.9416 46.7344 17.0455C46.5527 17.357 41.8272 17.1493 41.7234 16.8118C41.6715 16.656 41.8013 16.1627 42.009 15.6954C42.2167 15.228 42.71 14.0077 43.0995 12.9692C43.8265 10.9959 44.3977 10.5805 44.6833 11.8008Z" fill="white"/>
<path d="M62.5724 5.90689C62.4685 6.06267 62.4426 7.43875 62.4685 8.94466C62.5464 11.9045 62.3647 12.3459 61.3781 11.4631C60.6511 10.8141 58.3403 10.6583 57.1979 11.2035C55.1208 12.1901 53.8745 14.449 53.8745 17.2012C53.8745 19.3562 54.5236 20.9919 55.9516 22.3939C56.9642 23.4065 57.3537 23.5883 58.4701 23.744C60.2097 23.9258 60.8328 23.77 61.8973 22.7574C62.884 21.8747 63.3773 21.9266 63.8706 23.0171C64.2081 23.77 65.4804 23.6921 65.3246 22.9132C65.2726 22.6276 65.1947 18.8628 65.1688 14.5269C65.1169 10.1909 65.0649 6.63387 65.013 6.58195C63.611 5.62128 62.858 5.43954 62.5724 5.90689ZM60.8848 12.32C62.3907 13.3585 62.4426 13.5403 62.3647 17.4608L62.3128 21.0698L61.2742 21.7968C59.5606 22.9651 58.3403 22.6276 57.3796 20.7063C57.0161 20.0312 56.9123 19.1744 56.9123 17.331C56.9123 14.3971 57.4575 12.995 58.8596 12.32C59.9501 11.7747 60.1058 11.7747 60.8848 12.32Z" fill="white"/>
<path d="M196.39 5.95859C196.364 6.14034 196.364 7.54238 196.416 9.07425C196.468 12.1899 196.338 12.3976 194.858 11.3331C194.235 10.8658 193.872 10.7879 192.548 10.8917C191.094 10.9956 190.86 11.0994 189.847 12.0861C186.914 14.968 187.095 20.3426 190.237 22.8091C191.224 23.614 191.483 23.6919 193.041 23.6919C194.599 23.6919 194.832 23.614 195.637 22.8611C196.754 21.7965 197.091 21.7965 197.663 22.7832C197.948 23.3284 198.286 23.5621 198.623 23.5101C199.117 23.4323 199.142 23.2765 199.013 21.2253C198.857 18.7328 198.857 16.0585 198.987 10.5802L199.065 6.84136L198.312 6.24419C197.533 5.5951 196.442 5.43931 196.39 5.95859ZM194.858 12.3197C196.338 13.3323 196.39 13.566 196.416 17.3308C196.416 21.1474 196.468 20.9917 194.807 22.0562C193.742 22.7572 192.833 22.6533 191.976 21.7186C190.99 20.6541 190.73 19.6156 190.808 16.8634C190.886 14.293 191.431 12.9948 192.729 12.2678C193.664 11.7745 194.105 11.8005 194.858 12.3197Z" fill="white"/>
<path d="M209.736 6.0625C209.658 6.29618 209.658 7.69823 209.736 9.17817C209.917 12.19 209.788 12.3717 208.36 11.3332C207.736 10.8658 207.373 10.7879 206.049 10.8918C204.569 10.9956 204.361 11.0995 203.219 12.2159C199.246 16.1105 201.505 23.8218 206.62 23.8218C207.581 23.8218 208.048 23.64 208.983 22.913C209.658 22.4197 210.307 22.0043 210.437 22.0043C210.567 22.0043 210.878 22.3678 211.086 22.8092C211.605 23.7698 212.644 23.7958 212.618 22.8352C212.618 22.5236 212.592 18.7588 212.566 14.5008L212.514 6.73757L211.579 6.19232C210.489 5.54323 209.969 5.4913 209.736 6.0625ZM208.567 12.6573L209.658 13.4362V17.2789V21.0956L208.645 21.7966C206.906 23.0429 205.711 22.6534 204.621 20.5244C203.998 19.2781 204.05 15.2797 204.699 14.0074C205.374 12.7093 206.231 11.9563 207.217 11.9044C207.373 11.8784 207.996 12.2419 208.567 12.6573Z" fill="white"/>
<path d="M215.37 6.1665C213.812 7.72433 215.837 10.139 217.655 8.86674C218.485 8.29554 218.459 6.63385 217.577 6.06265C216.72 5.51741 215.993 5.54337 215.37 6.1665Z" fill="white"/>
<path d="M149.967 6.24465C149.733 6.55621 149.811 6.84181 150.46 7.80248C150.876 8.45157 151.239 9.1526 151.239 9.36031C151.239 9.56802 151.421 9.87958 151.629 10.0613C151.836 10.2431 152.018 10.4768 152.018 10.6066C152.018 10.7364 152.433 11.749 152.953 12.8395C153.472 13.9559 154.199 15.5137 154.537 16.2927C154.9 17.0716 155.523 18.4217 155.913 19.2785C156.328 20.1353 156.847 21.4595 157.107 22.1864C157.626 23.6924 158.353 24.0299 158.743 22.9654C159.548 20.9142 159.989 19.8237 160.768 18.1101C161.261 17.0456 161.754 15.9811 161.858 15.7734C161.988 15.5397 162.17 14.9945 162.274 14.5271C162.352 14.0598 162.663 13.5665 162.949 13.4366C163.364 13.203 163.494 13.2549 163.702 13.8261C163.858 14.2155 163.961 14.579 163.961 14.631C163.961 14.7868 164.818 16.6821 166.064 19.3304C166.48 20.2392 166.817 21.1219 166.817 21.3296C166.817 21.5374 166.921 21.771 167.051 21.8749C167.181 21.9528 167.363 22.3682 167.467 22.7836C167.57 23.199 167.726 23.6145 167.856 23.6924C168.168 23.9001 169.154 22.7836 169.154 22.2124C169.154 21.9528 169.57 20.8363 170.089 19.7458C171.024 17.7207 172.01 15.5397 172.633 14.0857C172.815 13.6443 173.153 12.8914 173.386 12.3981C173.594 11.9048 173.983 11.022 174.217 10.4508C174.996 8.63332 175.489 7.59477 175.879 7.15338C176.502 6.37446 175.879 6.01097 174.035 6.0629C172.218 6.08886 171.88 6.45236 172.633 7.51687C173.153 8.24386 173.153 9.33434 172.685 10.3989C172.322 11.2037 171.439 13.2289 170.998 14.3454C170.868 14.631 170.582 15.3839 170.323 16.033C170.089 16.6821 169.777 17.461 169.647 17.7726C169.31 18.6554 168.479 18.5255 168.271 17.5908C168.194 17.1495 167.804 16.1369 167.441 15.306C167.051 14.5011 166.402 13.0731 165.987 12.1384C165.571 11.2037 165.104 10.269 164.974 10.0613C164.844 9.85362 164.662 9.49013 164.585 9.28242C163.909 7.49091 163.572 6.76392 163.338 6.50428C163.182 6.3485 162.352 6.16675 161.495 6.11483C160.041 6.03693 159.937 6.08886 159.859 6.60814C159.807 6.94567 159.885 7.20531 160.041 7.20531C160.197 7.20531 160.612 7.82844 161.002 8.55543C161.365 9.30838 161.858 10.269 162.066 10.6585C162.43 11.3595 162.404 11.5153 161.417 13.5145C160.846 14.6829 160.171 16.2667 159.911 17.0196C159.548 18.1621 159.392 18.3957 158.924 18.3178C158.639 18.2659 158.353 18.0063 158.301 17.7207C158.249 17.4351 157.964 16.6821 157.678 16.033C157.393 15.3839 156.873 14.2155 156.51 13.4366C156.172 12.6577 155.523 11.2557 155.108 10.321C154.069 8.08808 153.654 7.17934 153.472 6.60814C153.368 6.29657 153.057 6.16675 152.356 6.16675C151.81 6.16675 151.135 6.08886 150.824 6.01097C150.512 5.93308 150.149 6.03693 149.967 6.24465Z" fill="white"/>
<path d="M106.633 9.07461L106.711 10.97L106.01 11.0479C105.595 11.0998 105.283 11.2815 105.283 11.4892C105.283 11.697 105.595 11.8787 106.01 11.9306L106.711 12.0085L106.763 16.4224C106.763 18.837 106.815 21.0959 106.815 21.4074C106.841 21.745 107.179 22.3681 107.568 22.8355C108.269 23.5884 108.425 23.6403 110.138 23.6663C111.904 23.6923 111.982 23.6663 112.891 22.7056C113.436 22.1864 113.851 21.5632 113.851 21.3555C113.851 20.6026 113.254 20.6805 112.371 21.5892C111.281 22.7056 110.112 22.8614 109.801 21.9267C109.411 20.7843 109.36 20.265 109.256 16.0849L109.152 11.8787H110.19C110.917 11.8787 111.437 12.0864 111.982 12.5278C113.046 13.4365 113.332 13.3586 113.332 12.1383C113.332 11.3335 113.228 11.0998 112.891 11.0738C112.631 11.0479 111.722 11.0219 110.865 10.9959L109.308 10.97V9.49003C109.308 7.77642 108.84 7.23118 107.412 7.20521H106.529L106.633 9.07461Z" fill="white"/>
<path d="M240.4 9.74937C239.802 10.3465 239.023 10.8399 238.478 10.9437C236.115 11.4111 234.584 13.3064 234.376 16.0326C234.246 18.0318 234.584 19.33 235.492 20.2647L236.141 20.8879L235.363 21.9524C234.687 22.8871 234.584 23.2765 234.584 24.6786C234.584 25.9768 234.713 26.522 235.181 27.223C235.778 28.1058 235.778 28.1058 237.777 28.0539C239.698 28.002 239.776 28.0279 240.685 28.9107C241.516 29.6636 241.802 29.7935 242.944 29.7935C244.164 29.7935 244.346 29.6896 245.281 28.7549C246.631 27.3269 246.657 25.9768 245.385 24.4968C244.58 23.5362 244.424 23.4583 243.204 23.4842C242.269 23.4842 241.36 23.7698 239.958 24.4449C237.855 25.4315 237.44 25.5354 236.635 25.12C236.012 24.7565 235.934 22.7573 236.557 22.1601C237.05 21.6408 237.024 21.6408 237.985 22.1601C238.92 22.6274 241.23 22.7313 241.646 22.3159C241.828 22.1341 242.165 22.0043 242.425 22.0043C243.281 22.0043 245.177 20.0051 245.566 18.6809C246.527 15.5393 245.462 13.0468 242.606 11.6967C240.919 10.8918 240.607 10.3206 241.931 10.3206C242.866 10.3465 243.931 11.0995 243.931 11.7486C243.931 12.2419 244.45 12.164 244.735 11.5928C245.956 9.10027 245.852 8.91853 243.385 8.81467L241.412 8.73678L240.4 9.74937ZM240.815 12.4496C241.256 12.7612 241.594 13.1247 241.594 13.2805C241.594 13.4103 241.75 13.7218 241.957 13.9295C242.529 14.6046 243.152 16.8115 243.152 18.1357C243.152 20.057 242.061 21.485 240.633 21.485C238.946 21.485 236.92 18.1876 236.92 15.4355C236.92 14.0074 237.024 13.6959 237.725 12.8391C238.66 11.6967 239.647 11.5668 240.815 12.4496ZM244.32 26.4182C244.71 26.8595 244.735 27.0413 244.502 27.5865C244.242 28.1577 244.06 28.2356 242.684 28.2356C241.126 28.2356 240.555 27.95 240.555 27.1711C240.555 26.8855 240.841 26.6518 241.334 26.548C241.75 26.4441 242.165 26.2624 242.243 26.1326C242.529 25.7171 243.827 25.8989 244.32 26.4182Z" fill="white"/>
<path d="M67.4796 11.2032C67.4017 11.4109 67.7912 12.4754 68.3624 13.6179C69.8164 16.4479 71.7896 20.706 71.7896 20.9397C71.7896 21.407 72.8542 23.562 73.0878 23.562C73.3475 23.562 74.1264 22.2119 74.1264 21.7445C74.1264 21.5888 74.6457 20.3165 75.2948 18.9404C76.6968 15.9546 77.0343 15.2536 77.6575 13.6958C77.9171 13.0467 78.2806 12.3197 78.4883 12.086C79.1634 11.2811 78.696 10.8397 77.1122 10.8397C75.5284 10.8397 75.4246 10.9955 75.9698 12.5014C76.2035 13.1765 76.1516 13.5659 75.6842 14.8641C75.3726 15.7209 75.0611 16.7335 74.9832 17.123C74.9053 17.5124 74.6976 17.9798 74.4899 18.1356C74.0485 18.4991 73.3475 18.2654 73.3475 17.7201C73.3475 17.3567 72.257 14.7603 71.4002 13.0986C71.1925 12.6832 71.0107 12.2158 71.0107 12.0341C71.0107 11.8523 70.803 11.5148 70.5434 11.2811C69.9202 10.7099 67.6873 10.6839 67.4796 11.2032Z" fill="white"/>
<path d="M82.7986 11.0733C82.4871 11.2031 81.6822 11.8782 81.0331 12.5792C77.7876 15.9545 78.3328 20.4463 82.2794 22.9647C83.1362 23.51 83.6295 23.6138 85.5248 23.6398C87.2384 23.6917 87.9654 23.5879 88.6145 23.2244C90.1204 22.3935 90.8474 21.4069 90.3281 20.8876C90.1464 20.7059 89.2377 21.1213 88.7443 21.6406C88.277 22.082 86.5374 22.3416 85.2912 22.1339C84.4863 22.0041 84.2266 21.8223 84.0968 21.329C83.8891 20.5241 84.2266 20.1347 86.1739 18.9663C87.0307 18.447 88.1991 17.6162 88.7443 17.0969C89.6012 16.292 89.705 16.0584 89.705 14.864C89.705 13.436 89.2377 12.5273 88.0433 11.5926C87.4462 11.1252 86.9009 10.9954 85.3171 10.9175C84.2266 10.8916 83.0842 10.9435 82.7986 11.0733ZM85.9403 12.3455C86.2259 12.5792 86.6672 13.2802 86.9269 13.8514C87.3942 14.864 87.3942 14.9679 86.9788 15.7987C86.5893 16.5517 83.1621 20.1866 82.8246 20.1866C82.7467 20.1866 82.539 19.8491 82.3053 19.4077C82.0716 18.9404 81.9159 17.9537 81.9159 16.6815C81.9159 14.6823 82.3572 13.5658 83.6035 12.3196C84.1487 11.7484 85.2652 11.7743 85.9403 12.3455Z" fill="white"/>
<path d="M95.4687 11.2815C94.586 11.645 94.2744 11.671 93.859 11.4113C93.5734 11.2296 93.0541 11.0998 92.6906 11.0998H92.0415V17.3311V23.5884L93.5214 23.5105L95.0014 23.4326L94.9235 18.1879L94.8456 12.9432L95.6505 12.5537C96.0659 12.3201 97.0266 12.1383 97.7276 12.1383C98.8181 12.1383 99.1816 12.2681 99.8826 12.8913L100.713 13.6183L100.636 18.6033L100.584 23.5884L102.09 23.5105L103.595 23.4326L103.543 18.7851C103.466 13.4106 103.284 12.7874 101.57 11.6969C100.168 10.7882 97.2343 10.6065 95.4687 11.2815Z" fill="white"/>
<path d="M115.591 11.0216C115.487 11.0995 115.409 13.2545 115.409 15.799V20.3946L116.266 21.511C116.707 22.1082 117.616 22.8871 118.265 23.2506C119.278 23.7699 119.693 23.8478 121.303 23.7439C122.342 23.692 123.354 23.4843 123.562 23.3025C123.951 22.991 124.73 23.0429 126.392 23.4323L127.093 23.6141L127.041 17.3049L126.963 10.9697H125.665H124.367V16.2923V21.6149L123.458 22.0563C121.563 22.991 119.096 22.3419 118.499 20.7581C118.317 20.3426 118.265 18.3175 118.317 15.5913C118.369 12.0342 118.317 11.0735 118.057 10.9697C117.538 10.7879 115.799 10.8139 115.591 11.0216Z" fill="white"/>
<path d="M129.663 10.8916C129.663 10.9435 129.637 13.7736 129.637 17.2008L129.611 23.4321H131.013H132.415V18.7067C132.415 14.0851 132.415 13.9813 133.039 13.3322C133.947 12.3456 135.323 12.3975 136.31 13.436C137.504 14.6823 137.738 14.5265 138.127 12.3196C138.257 11.4368 138.205 11.333 137.608 11.0993C136.622 10.7358 134.856 10.7877 134.103 11.2291C132.286 12.2677 132.338 12.2677 131.662 11.5407C131.273 11.1253 130.728 10.8397 130.338 10.8397C129.975 10.8397 129.689 10.8656 129.663 10.8916Z" fill="white"/>
<path d="M142.411 11.2554C139.919 12.969 138.776 14.9163 138.776 17.4348C138.776 19.2523 139.27 20.4726 140.594 21.7708C142.048 23.2507 143.06 23.6402 145.527 23.6661C147.63 23.6921 147.786 23.6402 149.11 22.7834C150.019 22.1862 150.46 21.7188 150.46 21.3294C150.46 20.4206 150.174 20.4206 148.98 21.3034C147.968 22.0304 147.604 22.1343 146.176 22.1343C143.06 22.1343 142.931 20.7322 145.89 18.9667C147.994 17.6944 148.669 17.1752 149.214 16.3443C150.149 14.9163 149.551 12.9171 147.812 11.6189C146.669 10.7621 143.424 10.5544 142.411 11.2554ZM145.813 12.3459C146.124 12.6315 146.54 13.3325 146.721 13.9556C147.007 14.8903 146.981 15.2279 146.643 16.0587C146.436 16.6299 146.176 17.0713 146.072 17.0713C145.787 17.0713 143.787 19.0186 143.476 19.5898C143.32 19.9273 143.008 20.187 142.801 20.187C142.152 20.187 141.892 19.2523 141.892 16.7857C141.892 14.8384 141.996 14.2412 142.437 13.5402C143.45 11.8785 144.696 11.4631 145.813 12.3459Z" fill="white"/>
<path d="M178.813 11.0996C178.501 11.2295 177.67 11.9045 176.969 12.6055C175.723 13.8518 174.866 15.7731 174.866 17.331C174.866 19.3821 176.346 21.7967 178.423 23.069C179.202 23.5623 179.747 23.6661 181.591 23.6661C183.564 23.6921 183.954 23.6142 184.862 23.0171C186.135 22.1862 186.654 21.589 186.42 21.2255C186.16 20.8361 185.641 20.914 184.94 21.4852C184.135 22.1083 181.773 22.4199 180.786 22.0304C179.41 21.5111 180.241 19.7456 182.24 18.8628C183.071 18.4993 183.694 18.058 184.629 17.1233C185.433 16.3443 185.511 16.1626 185.511 14.6567C185.511 13.1508 185.433 12.9431 184.681 12.2161C184.213 11.7487 183.486 11.2554 183.097 11.1256C182.214 10.7881 179.644 10.7881 178.813 11.0996ZM182.058 12.4498C182.863 13.3325 183.175 14.0855 183.175 15.0981C183.175 15.877 182.889 16.2665 180.942 18.2137L178.735 20.4466L178.293 19.46C177.774 18.2916 177.826 15.0202 178.345 13.9816C179.41 11.9565 180.994 11.3074 182.058 12.4498Z" fill="white"/>
<path d="M215.292 10.9959C215.188 11.0998 215.11 13.9818 215.11 17.383V23.5884L216.486 23.5105L217.837 23.4326L217.914 17.6946C217.966 12.5018 217.94 11.9306 217.525 11.5671C216.98 11.0998 215.552 10.7363 215.292 10.9959Z" fill="white"/>
<path d="M224.587 11.0219C224.301 11.0998 223.964 11.2556 223.834 11.3854C223.496 11.6969 222.458 11.671 222.25 11.3594C222.172 11.2036 221.757 11.0998 221.315 11.0998H220.562V17.3311V23.5624H222.016H223.47L223.393 18.3437L223.315 13.1249L223.964 12.6316C224.405 12.2941 225.028 12.1383 226.067 12.1383C227.339 12.1383 227.677 12.2422 228.378 12.8653L229.157 13.5663L229.131 18.5774L229.105 23.5884L230.611 23.5105L232.116 23.4326L232.013 18.7591C231.909 12.8653 231.701 12.3201 228.923 11.0998C228.326 10.8401 225.574 10.7882 224.587 11.0219Z" fill="white"/>
<path d="M9.73633 26.9894C9.73633 27.0932 10.1777 27.3788 10.697 27.6385C12.151 28.3135 19.4728 28.2616 20.771 27.5606C21.2643 27.3009 21.6797 27.0153 21.6797 26.9374C21.6797 26.8596 18.9795 26.8076 15.708 26.8076C12.4106 26.8076 9.73633 26.8855 9.73633 26.9894Z" fill="white"/>
</svg>
